<svg width="560" height="303" viewBox="0 0 560 303" fill="none" xmlns="http://www.w3.org/2000/svg">
<g id="Frame 1321315322">
<path id="G" d="M190.198 105.184C185.011 100.567 178.527 97.1043 170.746 94.7957C162.965 92.1986 155.328 90.9 147.836 90.9C139.478 90.9 131.842 92.4871 124.925 95.6614C118.009 98.5471 111.957 102.731 106.77 108.214C101.871 113.409 97.9807 119.757 95.0989 127.26C92.2171 134.763 90.7763 142.843 90.7763 151.5C90.7763 160.157 92.3612 168.237 95.5312 175.74C98.7012 183.243 103.024 189.736 108.499 195.219C113.975 200.413 120.315 204.597 127.519 207.771C135.012 210.657 142.937 212.1 151.294 212.1C161.092 212.1 170.025 210.08 178.094 206.04C186.163 201.711 193.08 195.94 198.843 188.726H172.907V128.126H284V224.22C277.372 236.051 269.447 246.873 260.225 256.684C251.004 266.207 240.629 274.431 229.102 281.357C217.863 288.283 205.615 293.621 192.359 297.373C179.103 301.124 165.415 303 151.294 303C130.545 303 110.949 299.104 92.5053 291.313C74.0619 283.521 57.9239 272.844 44.0913 259.281C30.5469 245.719 19.7402 229.703 11.6712 211.234C3.89041 192.766 0 172.854 0 151.5C0 130.723 3.74632 111.1 11.239 92.6314C18.7316 74.1628 28.962 58.1471 41.93 44.5843C55.1862 30.7329 70.7478 19.9114 88.6149 12.12C106.77 4.04 126.222 0 146.971 0C163.109 0 177.086 1.58714 188.901 4.76142C200.716 7.93572 210.659 11.5429 218.728 15.5829C228.237 20.2 236.162 25.25 242.502 30.7328L190.198 105.184Z" fill="#0f0e0c"/>
<g id="Frame 1321315321" clip-path="url(#clip0_1402_93028)">
<path id="D" d="M308 410V121H388.379C415.607 121 439.793 124.033 460.938 130.099C482.372 136.165 500.331 145.264 514.814 157.396C529.586 169.528 540.738 184.693 548.269 202.891C556.09 220.8 560 241.597 560 265.283C560 288.97 556.09 309.912 548.269 328.109C540.738 346.019 529.586 361.039 514.814 373.171C500.331 385.303 482.372 394.546 460.938 400.901C439.793 406.967 415.607 410 388.379 410H308ZM400.545 327.676C422.269 327.676 439.069 322.621 450.945 312.511C462.821 302.112 468.759 286.37 468.759 265.283C468.759 244.197 462.821 228.599 450.945 218.489C439.069 208.379 422.269 203.324 400.545 203.324V327.676Z" fill="#0f0e0c"/>
<path id="D_2" d="M308 97V-192H388.379C415.607 -192 439.793 -188.967 460.938 -182.901C482.372 -176.835 500.331 -167.736 514.814 -155.604C529.586 -143.472 540.738 -128.307 548.269 -110.109C556.09 -92.2004 560 -71.4028 560 -47.7166C560 -24.0305 556.09 -3.08842 548.269 15.1095C540.738 33.0185 529.586 48.039 514.814 60.1709C500.331 72.3029 482.372 81.5462 460.938 87.9011C439.793 93.967 415.607 97 388.379 97H308ZM400.545 14.6762C422.269 14.6762 439.069 9.6212 450.945 -0.488739C462.821 -10.8875 468.759 -26.6302 468.759 -47.7166C468.759 -68.8031 462.821 -84.4013 450.945 -94.5112C439.069 -104.621 422.269 -109.676 400.545 -109.676V14.6762Z" fill="#0f0e0c"/>
</g>
</g>
<defs>
<clipPath id="clip0_1402_93028">
<rect width="252" height="303" fill="white" transform="translate(308)"/>
</clipPath>
</defs>
</svg>
